<svg aria-hidden="true" style="position:absolute;width:0;height:0;overflow:hidden"
  xmlns="http://www.w3.org/2000/svg">
  <defs>
    <symbol
      id="icon-burger-menu" viewBox="0 0 24 24" fill="none">
      <g id="menu-01">
        <path id="Icon" d="M3 12H21" stroke-width="2" stroke-linecap="round" stroke-linejoin="round" />
        <path id="Icon_2" d="M3 6H21" stroke-width="2" stroke-linecap="round"
          stroke-linejoin="round" />
        <path id="Icon_3" d="M3 18H21" stroke-width="2" stroke-linecap="round"
          stroke-linejoin="round" />
      </g>
    </symbol>
    <symbol id="icon-heart" fill="none" viewBox="0 0 18 18">
      <path stroke="#fff" stroke-linecap="round" stroke-linejoin="round" stroke-opacity=".8" stroke-width="1.5" d="M15.63 3.458a4.125 4.125 0 0 0-5.835 0L9 4.253l-.795-.796A4.126 4.126 0 0 0 2.37 9.293l.795.795L9 15.922l5.835-5.835.795-.795a4.127 4.127 0 0 0 0-5.835Z"/>
    </symbol>
    <symbol id="icon-heart-filled" fill="none" viewBox="0 0 18 18">
      <path fill="#3470FF" stroke="#3470FF" stroke-linecap="round" stroke-linejoin="round" stroke-width="1.5" d="M15.63 3.458a4.125 4.125 0 0 0-5.835 0L9 4.253l-.795-.796A4.126 4.126 0 0 0 2.37 9.293l.795.795L9 15.922l5.835-5.835.795-.795a4.127 4.127 0 0 0 0-5.835Z"/>
    </symbol>
  </defs>
</svg>